<svg xmlns="http://www.w3.org/2000/svg" width="1200" height="800"><rect width="1200" height="800" fill="#f8fbfa"/><rect x="100" y="100" width="1000" height="600" rx="36" fill="#fff" stroke="#e1ebe7" stroke-width="6"/><g transform="translate(150 180)"><rect width="180" height="350" rx="25" fill="#f4eee8"/><g fill="#fff" stroke="#ddd" stroke-width="3"><rect x="45" y="45" width="90" height="55" rx="10"/><rect x="45" y="125" width="90" height="55" rx="10"/><rect x="45" y="205" width="90" height="55" rx="10"/><rect x="45" y="285" width="90" height="35" rx="10"/></g></g><g transform="translate(410 170)"><path d="M0 110h300c-8 145-64 215-150 215S8 255 0 110z" fill="#d89a53"/><path d="M35 82c80-52 150-52 230 0" fill="none" stroke="#6b3d22" stroke-width="26" stroke-linecap="round"/><path d="M150 0v70" stroke="#0f8f7c" stroke-width="14" stroke-linecap="round"/><path d="M125 32l25 28 25-28" fill="none" stroke="#0f8f7c" stroke-width="12" stroke-linecap="round"/></g><g transform="translate(800 210)"><circle cx="100" cy="100" r="90" fill="#eef8f5"/><path d="M56 105l30 30 65-78" fill="none" stroke="#0f8f7c" stroke-width="18" stroke-linecap="round" stroke-linejoin="round"/><rect x="10" y="235" width="180" height="20" rx="10" fill="#0f8f7c" opacity=".75"/><rect x="30" y="280" width="140" height="16" rx="8" fill="#2f4656" opacity=".25"/></g></svg>