<svg xmlns="http://www.w3.org/2000/svg" width="1600" height="900"><rect width="1600" height="900" fill="#f7f5f0"/><circle cx="820" cy="460" r="280" fill="#fff" stroke="#e5ded2" stroke-width="16"/><path d="M610 410h390v190c0 95-76 172-170 172h-50c-94 0-170-77-170-172z" fill="#d39a62"/><path d="M1000 455h75c105 0 105 165 0 165h-66" fill="none" stroke="#d39a62" stroke-width="42"/><path d="M690 330c-45-70 50-95 16-165M815 330c-48-75 55-103 16-175M935 330c-44-70 52-99 14-169" fill="none" stroke="#8b725c" stroke-width="18" stroke-linecap="round" opacity=".55"/><g transform="translate(250 190)"><circle cx="145" cy="120" r="78" fill="#e6ad84"/><path d="M65 128c15-92 130-122 180-51 27 39 17 82-1 104-42-41-95-57-179-53z" fill="#2d3948"/><rect x="58" y="205" width="185" height="260" rx="80" fill="#284d6c"/><path d="M122 280c70 31 114 100 117 170" fill="none" stroke="#e6ad84" stroke-width="30" stroke-linecap="round"/></g><g transform="translate(1220 205)"><circle cx="100" cy="100" r="88" fill="#fff" stroke="#dbe6e2" stroke-width="8"/><path d="M100 100V45M100 100l40 25" stroke="#0f8f7c" stroke-width="13" stroke-linecap="round"/><circle cx="100" cy="100" r="10" fill="#0f8f7c"/><path d="M35 260h130" stroke="#e9242e" stroke-width="16" stroke-linecap="round"/><path d="M45 300h110" stroke="#2f4656" stroke-width="11" stroke-linecap="round" opacity=".25"/></g></svg>